<?xml version="1.0" standalone="no"?>
<!DOCTYPE svg PUBLIC "-//W3C//DTD SVG 20010904//EN"
 "http://www.w3.org/TR/2001/REC-SVG-20010904/DTD/svg10.dtd">
<svg version="1.0" xmlns="http://www.w3.org/2000/svg"
 width="500.000000pt" height="500.000000pt" viewBox="0 0 500.000000 500.000000"
 preserveAspectRatio="xMidYMid meet">
<metadata>
Created by potrace 1.14, written by Peter Selinger 2001-2017
</metadata>
<g transform="translate(0.000000,500.000000) scale(0.100000,-0.100000)"
fill="#000000" stroke="none">
<path d="M2820 3047 c167 -279 168 -547 5 -829 -25 -43 -45 -80 -45 -83 0 -3
45 -5 99 -5 l99 0 51 103 c66 135 82 196 88 353 8 193 -16 307 -100 467 l-41
77 -102 0 -103 0 49 -83z"/>
<path d="M3340 2756 c0 -211 4 -397 10 -427 15 -79 55 -138 115 -168 l49 -26
376 0 376 0 49 26 c60 30 100 89 115 168 6 30 10 216 10 427 l0 374 -100 0
-100 0 0 -374 0 -375 -24 -28 -24 -28 -279 -3 c-301 -4 -342 1 -361 43 -8 17
-12 140 -12 395 l-1 370 -99 0 -100 0 0 -374z"/>
<path d="M599 1943 c21 -38 45 -69 54 -71 9 -2 28 21 51 63 41 75 41 75 21 75
-8 0 -26 -23 -40 -51 -30 -57 -40 -56 -70 11 -11 25 -25 40 -36 40 -15 0 -12
-10 20 -67z"/>
<path d="M770 1940 l0 -70 71 0 c52 0 70 3 67 13 -3 7 -26 13 -56 15 -37 2
-52 7 -52 18 0 10 13 14 50 14 28 0 50 5 50 10 0 6 -22 10 -50 10 -44 0 -50 2
-50 21 0 19 5 21 52 17 35 -2 53 1 55 10 4 9 -14 12 -66 12 l-71 0 0 -70z"/>
<path d="M940 1990 c-19 -36 3 -59 60 -62 68 -4 64 -22 -5 -26 -40 -2 -55 -7
-55 -17 0 -12 14 -15 58 -15 70 0 85 9 80 46 -3 27 -6 29 -57 34 -69 6 -83 30
-18 30 50 0 77 7 77 21 0 5 -29 9 -65 9 -54 0 -66 -3 -75 -20z"/>
<path d="M1110 2000 c0 -10 3 -11 33 -14 8 -1 13 -22 15 -58 2 -43 7 -58 17
-58 12 0 15 14 15 60 0 57 1 60 25 60 14 0 25 5 25 10 0 6 -28 10 -65 10 -37
0 -65 -4 -65 -10z"/>
<path d="M1262 1943 c2 -42 8 -68 16 -71 8 -2 12 7 12 27 0 31 0 31 55 31 30
0 55 5 55 10 0 6 -25 10 -56 10 -47 0 -55 3 -52 18 2 12 14 17 43 18 61 2 65
3 65 14 0 6 -30 10 -70 10 l-71 0 3 -67z"/>
<path d="M1434 1997 c-3 -8 -4 -39 -2 -68 l3 -54 54 -3 c30 -2 66 -1 78 3 22
5 24 10 21 68 l-3 62 -73 3 c-55 2 -74 0 -78 -11z m119 -15 c4 -1 7 -20 7 -43
l0 -40 -52 3 c-52 3 -53 4 -56 36 -3 26 1 34 19 41 20 7 55 8 82 3z"/>
<path d="M1628 1978 c-2 -18 -1 -50 1 -70 l3 -38 64 0 c50 0 64 3 64 15 0 12
-13 15 -55 15 l-55 0 0 55 c0 59 -17 76 -22 23z"/>
<path d="M1789 1985 c0 -14 -1 -38 -1 -55 0 -63 -3 -60 71 -60 83 0 93 9 89
82 l-3 53 -77 3 c-77 3 -78 3 -79 -23z m119 -4 c7 -1 12 -16 12 -41 l0 -40
-55 0 -55 0 0 38 c0 48 4 52 49 47 20 -2 42 -4 49 -4z"/>
</g>
</svg>
